<?xml version="1.0" encoding="utf-8"?>
<!DOCTYPE svg PUBLIC "-//W3C//DTD SVG 20010904//EN" "http://www.w3.org/TR/2001/REC-SVG-20010904/DTD/svg10.dtd">
<svg version="1.0" xmlns="http://www.w3.org/2000/svg" width="2918px" height="1154px" viewBox="0 0 2918 1154" preserveAspectRatio="xMidYMid meet">
 <g fill="#003268">
  <path d="M1 889 l0 -183 1436.5 0 1436.5 0 0 183 0 183 -1436.5 0 -1436.5 0 0 -183z"/>
  <path d="M1.4 558.3 c0.3 -1 35.6 -106 78.4 -233.3 l77.8 -231.5 70.2 -0.3 c38.6 -0.1 70.2 -0.1 70.2 0.1 0 0.2 35.1 104.9 78 232.6 42.9 127.7 78 232.6 78 233.1 0 0.6 -25.2 1 -66.9 1 l-66.8 0 -10.4 -38.5 -10.4 -38.5 -73.7 0 c-40.6 0 -73.8 0.3 -73.8 0.6 0 0.6 -16.2 62.5 -18.6 71.2 l-1.5 5.2 -65.5 0 c-62 0 -65.5 -0.1 -65 -1.7z m257 -228.5 c-7.9 -28.8 -18.3 -66.7 -23.1 -84.2 -6.1 -22.6 -8.9 -31.3 -9.5 -30 -0.9 2.1 -43.6 159.2 -44.5 163.7 l-0.5 2.7 45.9 0 46 0 -14.3 -52.2z"/>
  <path d="M498 326.5 l0 -233.5 159 0 159 0 0 50 0 50 -94.5 0 -94.5 0 0 41 0 41 80.5 0 80.5 0 0 47 0 47 -80.5 0 -80.5 0 0 95.5 0 95.5 -64.5 0 -64.5 0 0 -233.5z"/>
  <path d="M789.4 558.3 c0.3 -1 35.6 -106 78.4 -233.3 l77.8 -231.5 70.2 -0.3 c38.6 -0.1 70.2 -0.1 70.2 0.1 0 0.2 35.1 104.9 78 232.6 42.9 127.7 78 232.6 78 233.1 0 0.6 -25.2 1 -66.9 1 l-66.8 0 -10.4 -38.5 -10.4 -38.5 -73.7 0 c-40.6 0 -73.8 0.3 -73.8 0.6 0 0.6 -16.2 62.5 -18.6 71.2 l-1.5 5.2 -65.5 0 c-62 0 -65.5 -0.1 -65 -1.7z m257 -228.5 c-7.9 -28.8 -18.3 -66.7 -23.1 -84.2 -6.1 -22.6 -8.9 -31.3 -9.5 -30 -0.9 2.1 -43.6 159.2 -44.5 163.7 l-0.5 2.7 45.9 0 46 0 -14.3 -52.2z"/>
 </g>
 <g fill="#ffffff">
  <path d="M877.5 1034.4 c-10.3 -1.5 -26.6 -6.4 -34 -10.1 -29.7 -15 -52.2 -48.1 -60.4 -89.1 -3 -14.9 -4.1 -27.4 -4.1 -47.7 0 -20.4 1.1 -32.8 4.1 -48 10.8 -53.7 41.2 -88.1 86.9 -98.6 11.2 -2.6 35.5 -3.6 48.4 -2 50.2 6.4 84.2 38.3 97.1 91.3 8.5 35.1 8.1 82 -1.1 117.7 -10.7 41 -37.4 71.6 -72.2 82.5 -4.6 1.4 -12.5 3.3 -17.5 4.1 -11.4 1.8 -34.9 1.8 -47.2 -0.1z m31.6 -66.4 c13.5 -2.5 24.2 -11.1 30.6 -24.6 9.6 -20.1 12.2 -67.8 5.3 -97.1 -6.7 -28.3 -27.8 -44.7 -52.2 -40.5 -21.5 3.7 -34.7 20.9 -39.4 51.3 -2.2 13.9 -2.2 45.7 -0.1 59.4 4 25.6 13.2 41.3 28.3 48.2 8.9 4 17.7 5.1 27.5 3.3z"/>
  <path d="M1248 1034.4 c-11.6 -1.8 -28.4 -7.3 -36.7 -12 -23.7 -13.2 -41.3 -36.7 -51.6 -68.9 -6.9 -21.4 -9.7 -40.7 -9.7 -66.5 0 -50.8 13.7 -91.4 39.8 -117.6 24 -24.2 49.1 -32.4 95.2 -31.1 21.1 0.6 33 2.3 44.1 6.3 21.5 7.7 38.3 25.1 48.4 50 4.1 10 8.2 24 7.3 24.9 -0.2 0.2 -15.8 3.8 -34.7 8 -35.4 7.9 -36 8 -36.1 3.6 0 -3.4 -7.6 -15.5 -12.6 -20.1 -7.8 -7 -14.4 -9.3 -26.9 -9.3 -11.6 0 -18.3 2 -26.4 8.1 -17.4 13.1 -25.1 36.4 -25.1 76.3 0 35.6 5.6 58.1 17.8 71.1 10.5 11.3 19.4 15 35.7 15.1 15.5 0.2 24.7 -2.9 41.8 -13.9 l6.7 -4.4 0 -13.5 0 -13.5 -24.5 0 -24.5 0 0 -30 0 -30 56.5 0 56.5 0 0 61.3 0 61.4 -8.5 6.7 c-27 21.4 -48.2 32 -74.5 37.2 -12.1 2.3 -45.4 2.8 -58 0.8z"/>
  <path d="M2325.5 1034.4 c-10.3 -1.5 -26.6 -6.4 -34 -10.1 -29.7 -15 -52.2 -48.1 -60.4 -89.1 -3 -14.9 -4.1 -27.4 -4.1 -47.7 0 -20.4 1.1 -32.8 4.1 -48 10.8 -53.7 41.2 -88.1 86.9 -98.6 11.2 -2.6 35.5 -3.6 48.4 -2 50.2 6.4 84.2 38.3 97.1 91.3 8.5 35.1 8.1 82 -1.1 117.7 -10.7 41 -37.4 71.6 -72.2 82.5 -4.6 1.4 -12.5 3.3 -17.5 4.1 -11.4 1.8 -34.9 1.8 -47.2 -0.1z m31.6 -66.4 c13.5 -2.5 24.2 -11.1 30.6 -24.6 9.6 -20.1 12.2 -67.8 5.3 -97.1 -6.7 -28.3 -27.8 -44.7 -52.2 -40.5 -21.5 3.7 -34.7 20.9 -39.4 51.3 -2.2 13.9 -2.2 45.7 -0.1 59.4 4 25.6 13.2 41.3 28.3 48.2 8.9 4 17.7 5.1 27.5 3.3z"/>
  <path d="M2681.5 1035.3 c-23.8 -2.8 -40 -8.5 -53.3 -18.6 -11.2 -8.5 -24.1 -29.9 -29.6 -49.1 -2.5 -8.7 -6.2 -30.3 -5.4 -31.2 0.8 -0.7 67 -5.6 68.4 -5 0.8 0.3 1.4 1.8 1.4 3.4 0 5 3.8 18.1 7.1 24.3 3.9 7.3 10.2 13.2 17.7 16.7 4.9 2.3 7 2.6 15.2 2.6 7.7 0 10.5 -0.4 14.5 -2.2 13.9 -6.3 20.8 -21.7 16.1 -36 -4.1 -12.1 -14.1 -18.4 -43.1 -27.2 -27.9 -8.5 -38.7 -13.1 -53.1 -22.6 -11.7 -7.7 -21.1 -18.2 -26.7 -29.7 -6.8 -13.8 -8.2 -20.4 -8.2 -38.2 0.1 -17.7 1.8 -25.3 9.2 -40.5 4 -8 6.1 -10.9 13.8 -18.5 17.8 -17.8 35.1 -24.1 69 -25.2 27.1 -0.9 42.9 1.8 60.5 10.3 8 3.9 10.8 6 18.1 13.3 7.1 7.2 9.4 10.4 13.2 18.2 5.3 10.6 9 22.7 10.8 34.9 0.8 5.9 0.9 8.4 0.1 8.9 -1.4 0.9 -65.9 5.4 -67.1 4.7 -0.4 -0.3 -1.1 -2.5 -1.4 -4.9 -1.5 -10.8 -7.6 -21.7 -14.7 -26.2 -9.2 -5.8 -24.3 -7 -32.9 -2.6 -5.3 2.8 -9.7 8.4 -11.1 14.3 -2.3 9.4 1.4 17 10.8 21.7 3.1 1.6 14.7 5.4 25.7 8.6 25.1 7.2 36.1 11.1 50 18 20 9.9 31.7 21 40 38 19.1 39.1 7.7 93.2 -25 119.8 -17.9 14.5 -40 20.8 -71.5 20.5 -8.5 0 -16.8 -0.3 -18.5 -0.5z"/>
  <path d="M59.5 1029.8 c0.2 -0.7 19.4 -63.4 42.5 -139.3 23.1 -75.9 42.8 -140.1 43.6 -142.7 l1.6 -4.8 39.6 0 39.7 0 43.5 142.5 c23.9 78.4 43.6 143.2 43.8 144 0.3 1.3 -4.7 1.5 -37.6 1.5 l-37.9 0 -5.9 -24 -5.8 -24 -40.7 0 -40.8 0 -1 3.6 c-0.6 2 -3.2 12.8 -5.8 24 l-4.8 20.4 -37.2 0 c-29.4 0 -37.1 -0.3 -36.8 -1.2z m151.5 -109.8 c0 -1.3 -23.8 -97 -24.7 -99 -0.5 -1.3 -25.1 94.9 -25.3 98.8 0 0.9 5.6 1.2 25 1.2 16.3 0 25 -0.4 25 -1z"/>
  <path d="M435 887 l0 -144 73.3 0 c77.9 0 79 0.1 91.9 5 18 6.7 32.8 24.6 38.4 46.5 2.7 10.2 2.4 31.2 -0.4 41.8 -4.6 16.8 -15.4 31.2 -28.7 38.4 -5.6 3 -5.8 3.3 -3.5 4 1.4 0.3 6.1 2.5 10.5 4.6 15.4 7.7 27.6 23.1 32 40.2 8.1 31.7 0.3 66.2 -19.5 86.3 -10.4 10.5 -19 14.4 -41.1 18.4 -11.9 2.1 -15.2 2.2 -82.6 2.6 l-70.3 0.3 0 -144.1z m119.9 81 c15.6 -2.6 23.5 -12.1 23.6 -28.6 0 -7 -0.4 -8.8 -3 -13.9 -6.2 -12.1 -13.8 -14.5 -46.2 -14.5 l-21.3 0 0 29 0 29 20.3 0 c11.1 0 23.1 -0.5 26.6 -1z m-0.9 -114 c10.3 -3.8 15 -11.6 15 -24.9 0 -4.6 -0.6 -10.2 -1.2 -12.4 -1.6 -5.4 -8.2 -12.1 -13.3 -13.7 -2.4 -0.8 -12.5 -1.5 -25.2 -1.7 l-21.3 -0.5 0 27.7 0 27.7 21.3 -0.4 c13.9 -0.3 22.4 -0.9 24.7 -1.8z"/>
  <path d="M1506.5 1029.8 c0.2 -0.7 19.4 -63.4 42.5 -139.3 23.1 -75.9 42.8 -140.1 43.6 -142.7 l1.6 -4.8 39.6 0 39.7 0 43.5 142.5 c23.9 78.4 43.6 143.2 43.8 144 0.3 1.3 -4.7 1.5 -37.6 1.5 l-37.9 0 -5.9 -24 -5.8 -24 -40.7 0 -40.8 0 -1 3.6 c-0.6 2 -3.2 12.8 -5.8 24 l-4.8 20.4 -37.2 0 c-29.4 0 -37.1 -0.3 -36.8 -1.2z m151.5 -109.8 c0 -1.3 -23.8 -97 -24.7 -99 -0.5 -1.3 -25.1 94.9 -25.3 98.8 0 0.9 5.6 1.2 25 1.2 16.3 0 25 -0.4 25 -1z"/>
  <path d="M1884 887 l0 -144.1 64.8 0.4 c69.2 0.4 68.3 0.3 83.6 5.7 18.3 6.3 34.9 21 46.2 40.7 15.5 27.3 22.6 67 20.3 115.1 -2.2 48.2 -13.9 79.1 -38.6 102.3 -9 8.5 -16.8 13.1 -28 16.8 -20.2 6.6 -17.9 6.4 -86 6.8 l-62.3 0.4 0 -144.1z m104 78 c16.4 -2.2 23.4 -6.9 30 -20.3 5.9 -12.3 7.1 -19.3 7.7 -48.3 1.2 -56.2 -6.5 -77 -31.7 -85.5 -5.2 -1.7 -9.7 -2.2 -22.2 -2.7 l-15.8 -0.5 0 79.2 0 79.1 12.3 0 c6.7 0 15.6 -0.5 19.7 -1z"/>
 </g>
</svg>